HIERARCHY
ROOT Hips
{
	OFFSET -0.001795 -0.223333 0.028219
	CHANNELS 6 Xposition Yposition Zposition Zrotation Yrotation Xrotation 
	JOINT LeftUpLeg
	{
		OFFSET 0.069520 -0.091406 -0.006815
		CHANNELS 3 Zrotation Yrotation Xrotation
		JOINT LeftLeg
		{
			OFFSET 0.034277 -0.375199 -0.004496
			CHANNELS 3 Zrotation Yrotation Xrotation
			JOINT LeftFoot
			{
				OFFSET -0.013596 -0.397961 -0.043693
				CHANNELS 3 Zrotation Yrotation Xrotation
				JOINT LeftToe
				{
					OFFSET 0.026358 -0.055791 0.119288
					CHANNELS 3 Zrotation Yrotation Xrotation
					End Site
					{
						OFFSET 0.000000 0.000000 0.000000
					}
				}
			}
		}
	}
	JOINT RightUpLeg
	{
		OFFSET -0.067670 -0.090522 -0.004320
		CHANNELS 3 Zrotation Yrotation Xrotation
		JOINT RightLeg
		{
			OFFSET -0.038290 -0.382569 -0.008850
			CHANNELS 3 Zrotation Yrotation Xrotation
			JOINT RightFoot
			{
				OFFSET 0.015774 -0.398415 -0.042312
				CHANNELS 3 Zrotation Yrotation Xrotation
				JOINT RightToe
				{
					OFFSET -0.025372 -0.048144 0.123348
					CHANNELS 3 Zrotation Yrotation Xrotation
					End Site
					{
						OFFSET 0.000000 0.000000 0.000000
					}
				}
			}
		}
	}
	JOINT Spine
	{
		OFFSET -0.002533 0.108963 -0.026696
		CHANNELS 3 Zrotation Yrotation Xrotation
		JOINT Spine1
		{
			OFFSET 0.005487 0.135180 0.001092
			CHANNELS 3 Zrotation Yrotation Xrotation
			JOINT Spine2
			{
				OFFSET 0.001457 0.052922 0.025425
				CHANNELS 3 Zrotation Yrotation Xrotation
				JOINT Neck
				{
					OFFSET -0.002778 0.213870 -0.042857
					CHANNELS 3 Zrotation Yrotation Xrotation
					JOINT Head
					{
						OFFSET 0.005152 0.064970 0.051349
						CHANNELS 3 Zrotation Yrotation Xrotation
						End Site
						{
							OFFSET 0.000000 0.000000 0.000000
						}
					}
				}
				JOINT LeftShoulder
				{
					OFFSET 0.078845 0.121749 -0.034090
					CHANNELS 3 Zrotation Yrotation Xrotation
					JOINT LeftArm
					{
						OFFSET 0.090977 0.030469 -0.008868
						CHANNELS 3 Zrotation Yrotation Xrotation
						JOINT LeftForeArm
						{
							OFFSET 0.259612 -0.012772 -0.027456
							CHANNELS 3 Zrotation Yrotation Xrotation
							JOINT LeftHand
							{
								OFFSET 0.249234 0.008986 -0.001171
								CHANNELS 3 Zrotation Yrotation Xrotation
								End Site
								{
									OFFSET 0.000000 0.000000 0.000000
								}
							}
						}
					}
				}
				JOINT RightShoulder
				{
					OFFSET -0.081759 0.118833 -0.038615
					CHANNELS 3 Zrotation Yrotation Xrotation
					JOINT RightArm
					{
						OFFSET -0.096012 0.032551 -0.009143
						CHANNELS 3 Zrotation Yrotation Xrotation
						JOINT RightForeArm
						{
							OFFSET -0.253742 -0.013329 -0.021401
							CHANNELS 3 Zrotation Yrotation Xrotation
							JOINT RightHand
							{
								OFFSET -0.255298 0.007772 -0.005559
								CHANNELS 3 Zrotation Yrotation Xrotation
								End Site
								{
									OFFSET 0.000000 0.000000 0.000000
								}
							}
						}
					}
				}
			}
		}
	}
}
MOTION
Frames: 16
Frame Time: 0.050000
0.000000 0.927305 0.000000 0.339775 10.978383 -3.037203 0.422925 0.339054 4.895499 -4.712153 0.399156 1.296934 1.178495 2.929510 0.964478 0.000000 0.000000 0.000000 -4.907597 0.228168 -5.043485 4.530834 -1.473763 24.787714 -0.097841 16.941649 -22.718056 0.000000 0.000000 0.000000 -0.994293 -0.171747 4.884814 2.611301 -1.580354 3.100430 -4.226578 -1.450865 5.031276 2.995321 -0.446471 -13.880089 0.000000 0.000000 0.000000 -29.206148 -14.984186 4.728948 -38.506798 -7.052244 -1.809107 -6.192324 -30.345983 2.558482 0.000000 0.000000 0.000000 28.397952 8.866531 5.027968 46.353044 8.039842 -2.222312 -8.324185 21.252958 -0.513621 0.000000 0.000000 0.000000 
0.006019 0.927359 0.007291 0.170826 12.048762 -3.151802 0.625775 0.418779 6.619752 -5.023617 0.400896 -0.736988 0.539258 1.781327 1.180258 0.000000 0.000000 0.000000 -4.209012 0.406948 -7.855254 7.541076 -2.518680 22.745310 0.189272 9.719310 -16.075194 0.000000 0.000000 0.000000 -0.998004 -0.198222 5.468556 2.165381 -1.171413 1.261488 -4.258067 -2.419922 7.732309 2.704934 0.000906 -16.663876 0.000000 0.000000 0.000000 -28.191271 -16.133989 5.726546 -38.713665 -7.305825 -2.005821 -5.119446 -31.239360 2.381258 0.000000 0.000000 0.000000 28.291841 8.577239 4.878177 48.504809 9.635263 -1.903080 -10.218839 22.759773 -0.833481 0.000000 0.000000 0.000000 
0.010883 0.929431 0.015362 -0.146868 11.789791 -2.835354 0.009506 0.507983 7.178600 -3.703514 0.310693 -1.430481 0.538333 2.061600 1.692967 0.000000 0.000000 0.000000 -3.538715 0.671288 -11.749711 10.918069 -3.241015 18.717786 -0.972195 -1.172457 -4.100701 0.000000 0.000000 0.000000 -1.518638 -0.173790 5.399508 2.220285 -1.119145 0.442481 -3.811460 -2.728756 8.804869 0.225439 1.418850 -16.144840 0.000000 0.000000 0.000000 -27.245051 -16.881746 6.458030 -38.998784 -8.555738 -1.819340 -4.765154 -30.265707 2.250307 0.000000 0.000000 0.000000 26.761705 10.882800 6.084484 48.707729 9.658568 -1.856474 -8.236273 22.433544 -0.523178 0.000000 0.000000 0.000000 
0.015495 0.929732 0.025266 -0.422665 12.174285 -3.353036 -0.493354 0.634031 8.599150 -2.422308 0.226986 -1.839199 0.434642 1.777169 1.540142 0.000000 0.000000 0.000000 -2.645085 0.854851 -13.496008 11.914451 -3.187178 15.208937 -5.199926 -13.313057 9.306429 0.000000 0.000000 0.000000 -1.646335 -0.203843 6.216507 1.747182 -0.893531 0.550213 -2.849017 -3.900060 8.575572 -1.846946 2.563552 -15.882569 0.000000 0.000000 0.000000 -27.477789 -17.411734 7.257960 -38.771265 -8.705667 -1.895375 -4.219985 -31.349424 2.242499 0.000000 0.000000 0.000000 26.307801 12.124327 6.392924 49.266891 9.570731 -1.744431 -9.296149 22.892120 -0.768099 0.000000 0.000000 0.000000 
0.019682 0.930037 0.036797 -0.293468 12.852055 -2.741250 -0.841469 0.695281 9.176328 -2.030933 0.208526 -2.671885 0.028128 1.175829 1.861094 0.000000 0.000000 0.000000 -1.282796 1.122792 -15.257213 10.541970 -2.670636 13.753146 -11.991736 -24.063798 20.433389 0.000000 0.000000 0.000000 -1.652213 -0.203581 6.267972 2.569495 -1.372464 1.180762 -4.206773 -4.171350 7.386597 -1.186430 2.097501 -14.608381 0.000000 0.000000 0.000000 -26.543242 -18.316871 7.599014 -39.079673 -10.088993 -1.347987 -2.608963 -29.654824 1.668875 0.000000 0.000000 0.000000 27.523522 12.689123 6.931811 48.770477 10.386732 -1.337221 -10.605396 21.971687 -0.957419 0.000000 0.000000 0.000000 
0.023784 0.928654 0.050497 -0.093765 13.487799 -2.527167 -1.290589 0.776173 9.880771 -1.496540 0.174931 -2.623852 -0.118757 0.639702 1.429051 0.000000 0.000000 0.000000 0.175304 1.313853 -15.153450 7.549285 -1.969904 15.195132 -12.668861 -25.297966 18.913091 0.000000 0.000000 0.000000 -1.505018 -0.227863 6.663515 2.625877 -1.455254 1.641138 -3.981836 -5.296653 6.483827 -2.191293 2.611127 -14.162860 0.000000 0.000000 0.000000 -27.689339 -19.296503 8.657407 -38.116596 -10.393949 -1.267084 -0.228961 -29.568812 1.084695 0.000000 0.000000 0.000000 28.042164 13.950450 7.394805 47.868941 10.812358 -0.978365 -11.539259 21.041702 -1.106893 0.000000 0.000000 0.000000 
0.028030 0.926159 0.066310 -0.124803 13.919384 -2.733488 -1.896500 0.894937 10.861197 -0.223460 0.082848 -2.050968 0.077707 0.410263 0.418088 0.000000 0.000000 0.000000 1.694481 1.441069 -14.171277 5.020960 -1.313126 16.036711 -13.167272 -26.502110 16.952018 0.000000 0.000000 0.000000 -1.034715 -0.279029 7.215435 3.076973 -1.729890 1.974233 -4.666370 -5.345457 6.144908 -1.408997 2.107347 -13.621521 0.000000 0.000000 0.000000 -27.904813 -19.905077 8.938301 -36.971682 -11.925825 -0.727786 1.039685 -27.961474 0.699145 0.000000 0.000000 0.000000 28.532586 14.947612 8.208364 47.760195 11.643636 -0.657660 -13.393492 20.408055 -1.347752 0.000000 0.000000 0.000000 
0.031988 0.923132 0.083195 -0.249504 13.718700 -2.615688 -2.360847 0.934971 10.576440 0.791292 -0.082599 0.298333 0.723425 0.858055 -0.951892 0.000000 0.000000 0.000000 2.812708 1.511427 -13.348275 3.488368 -0.879919 16.521056 -13.227643 -27.240005 14.642567 0.000000 0.000000 0.000000 -0.693660 -0.302938 7.325146 3.134400 -1.817072 2.463798 -4.199148 -5.828824 6.302250 -2.385789 2.714045 -14.769676 0.000000 0.000000 0.000000 -28.100160 -20.684382 9.804264 -36.003770 -14.169360 -0.205799 3.539548 -28.284509 0.117895 0.000000 0.000000 0.000000 27.969291 16.022487 8.566916 47.498119 12.536085 -0.231602 -13.410350 20.379127 -1.376289 0.000000 0.000000 0.000000 
0.035072 0.921856 0.100232 -0.749767 13.685545 -2.806853 -1.617157 0.748578 9.017108 0.461562 -0.300089 5.272501 1.137308 1.276962 -1.648517 0.000000 0.000000 0.000000 3.892975 1.495323 -11.946942 2.767748 -0.663805 16.341137 -13.260889 -27.760245 13.214133 0.000000 0.000000 0.000000 -0.348200 -0.376999 8.241634 4.229202 -2.440147 2.804552 -4.242258 -5.921352 5.671777 -2.517369 2.796504 -15.164133 0.000000 0.000000 0.000000 -26.887427 -21.358099 10.133326 -35.448917 -17.128208 0.624168 5.741221 -27.649117 -0.420251 0.000000 0.000000 0.000000 28.024502 17.098882 9.197288 46.175162 13.011228 0.000821 -13.420205 19.483652 -1.322824 0.000000 0.000000 0.000000 
0.037087 0.922044 0.116368 -0.881295 12.988596 -2.615021 -0.667456 0.348203 4.249752 -1.868086 -0.525985 15.696677 2.094846 3.725256 -0.910825 0.000000 0.000000 0.000000 3.949075 1.401059 -10.998698 3.199819 -0.745949 16.159970 -12.831071 -27.401749 12.110129 0.000000 0.000000 0.000000 -0.749853 -0.362854 8.523432 5.245446 -3.203169 4.366608 -3.574598 -6.043566 4.445714 -3.398775 3.256819 -15.288143 0.000000 0.000000 0.000000 -25.681599 -21.220996 10.175304 -34.337657 -20.767109 1.532239 8.507565 -26.339598 -1.012972 0.000000 0.000000 0.000000 26.749946 19.356406 10.139114 45.203443 14.651614 0.799258 -12.900756 18.214936 -1.186881 0.000000 0.000000 0.000000 
0.038671 0.922329 0.131521 -1.408534 11.472588 -2.124585 1.305711 -0.293865 -3.435158 -6.760689 0.118088 30.208806 3.636103 8.939839 3.979075 0.000000 0.000000 0.000000 4.972483 1.441481 -10.565264 2.661416 -0.518137 16.057511 -12.090522 -26.417917 11.159086 0.000000 0.000000 0.000000 -0.558672 -0.384182 8.807751 4.513455 -2.737956 4.161298 -1.888559 -5.264003 4.434532 -4.580289 3.967396 -16.455840 0.000000 0.000000 0.000000 -24.859875 -22.649763 11.113824 -32.784703 -23.470125 2.048558 11.091851 -25.869201 -1.564333 0.000000 0.000000 0.000000 25.124274 20.226061 10.371375 44.007724 15.166474 0.954979 -11.855660 18.847702 -1.098503 0.000000 0.000000 0.000000 
0.040878 0.920555 0.146687 -1.632231 11.067252 -2.224948 4.503893 -0.793782 -11.535247 -12.860373 2.390882 40.810692 4.529112 14.084737 19.295168 0.000000 0.000000 0.000000 5.034577 1.304917 -9.426923 3.129534 -0.632111 16.022874 -11.840467 -26.381015 9.677299 0.000000 0.000000 0.000000 -1.243415 -0.400232 10.133847 5.085752 -2.953838 3.517760 -1.007443 -5.322052 5.356017 -5.796440 4.663202 -18.542069 0.000000 0.000000 0.000000 -25.015554 -24.156094 12.296720 -29.072509 -26.742402 2.287275 13.126167 -23.026486 -1.777190 0.000000 0.000000 0.000000 24.215327 22.462754 11.512566 42.685164 16.089630 1.178935 -11.672335 21.264061 -1.259635 0.000000 0.000000 0.000000 
0.044184 0.918590 0.161982 -1.391410 9.421278 -2.630440 6.141633 -1.031517 -17.695227 -14.796730 3.509295 36.917339 16.936155 23.768512 72.553157 0.000000 0.000000 0.000000 5.339786 1.168951 -8.232214 2.111280 -0.286361 16.805823 -11.102652 -25.507286 7.678248 0.000000 0.000000 0.000000 -1.654129 -0.488083 12.926222 3.900148 -2.104553 1.861924 0.391841 -4.332441 6.957074 -5.992932 4.805596 -19.622981 0.000000 0.000000 0.000000 -25.464604 -27.399356 14.532525 -24.201545 -29.833565 2.103176 14.121478 -18.630352 -1.588847 0.000000 0.000000 0.000000 23.957513 24.724277 12.909009 41.182701 18.868624 1.880237 -12.370876 21.161745 -1.368594 0.000000 0.000000 0.000000 
0.048482 0.917044 0.177247 -0.861177 7.482517 -1.985895 6.345840 -1.310101 -23.252818 -9.545606 1.552927 22.086160 21.048537 16.463803 134.721025 0.000000 0.000000 0.000000 4.965635 1.129964 -8.229064 1.415425 -0.003605 17.681268 -10.282527 -24.244776 5.859997 0.000000 0.000000 0.000000 -2.658602 -0.425737 15.068364 3.323274 -1.755112 1.500225 0.962122 -3.994796 7.217218 -6.803500 5.168370 -20.620086 0.000000 0.000000 0.000000 -25.180795 -29.376475 16.097597 -19.929304 -31.598199 1.586348 15.330526 -13.916020 -1.304847 0.000000 0.000000 0.000000 23.442234 27.173992 14.062351 40.764294 22.873309 3.234069 -13.723209 21.779733 -1.670520 0.000000 0.000000 0.000000 
0.053183 0.916644 0.193238 -1.195125 5.597861 -1.025659 6.924107 -1.296981 -26.352422 -3.463302 0.258589 7.869778 25.399276 15.812672 140.911102 0.000000 0.000000 0.000000 5.131997 1.242328 -9.104684 1.235980 0.142553 19.226569 -9.563649 -22.807999 5.597859 0.000000 0.000000 0.000000 -2.673715 -0.445153 16.981500 2.562386 -1.369777 1.694437 0.805703 -3.397992 6.742936 -7.502958 5.480811 -21.617645 0.000000 0.000000 0.000000 -24.121595 -31.895489 17.603245 -16.974204 -32.039234 1.123722 15.688250 -9.111117 -0.852597 0.000000 0.000000 0.000000 24.516116 29.566101 15.725042 38.916613 26.143402 4.135888 -14.327230 22.333007 -1.840000 0.000000 0.000000 0.000000 
0.057962 0.914270 0.211029 -1.418067 3.684661 -0.294806 7.443929 -1.085850 -26.912300 -0.851475 0.032796 1.901073 17.051491 22.059808 92.391441 0.000000 0.000000 0.000000 5.791233 1.291934 -9.273710 -0.073240 0.648991 20.316218 -8.930690 -21.633073 4.329887 0.000000 0.000000 0.000000 -3.657115 -0.281263 18.936408 1.922949 -1.045573 1.900724 0.992606 -3.158583 6.512782 -8.585411 5.968175 -21.930954 0.000000 0.000000 0.000000 -21.809135 -33.668955 18.333976 -14.602904 -32.326442 0.701343 14.668181 -6.281694 -0.508453 0.000000 0.000000 0.000000 23.848658 32.308829 17.069586 38.738821 30.218381 5.510764 -15.220623 23.298357 -2.120545 0.000000 0.000000 0.000000 
